<?xml version="1.0" encoding="utf-8"?>
<!-- Generator: Adobe Illustrator 27.1.1, SVG Export Plug-In . SVG Version: 6.00 Build 0)  -->
<svg version="1.1" id="Layer_1" xmlns="http://www.w3.org/2000/svg" xmlns:xlink="http://www.w3.org/1999/xlink" x="0px" y="0px"
	 viewBox="0 0 48 48" style="enable-background:new 0 0 48 48;" xml:space="preserve">
<rect x="-4.6" y="25.1" transform="matrix(0.7365 0.6764 -0.6764 0.7365 23.876 -7.9356)" width="53.4" height="3.1"/>
<g>
	<polygon points="19,9 28.7,9 28.7,26.6 35,32.5 36,32.5 36,29.5 31.7,25.6 31.7,9 34.2,9 34.2,6 13.5,6 13.5,9 16,9 16,15 19,17.7 
			"/>
	<polygon points="16,29.5 19,26.7 19,21.9 16,19.1 16,25.6 12,29.5 12,32.5 22.5,32.5 22.5,44.5 24,46 25.5,44.5 25.5,32.5 
		30.5,32.5 27.3,29.5 	"/>
</g>
</svg>
